<?xml version="1.0" encoding="utf-8"?>
<svg viewBox="0 0 300 73" width="300px" height="73px" fill="none" xmlns="http://www.w3.org/2000/svg">
  <defs>
    <clipPath id="I">
      <path fill="#fff" d="M0 0h300v73H0z"/>
    </clipPath>
    <filter id="A" x="0" y="0" width="81.451" height="81.241" filterUnits="userSpaceOnUse" class="B">
      <feFlood class="C"/>
      <feBlend in="SourceGraphic" result="B"/>
      <feColorMatrix in="SourceAlpha" values="0 0 0 0 0 0 0 0 0 0 0 0 0 0 0 0 0 0 127 0" result="C"/>
      <feOffset dx="2.08365" dy="8.33459"/>
      <feGaussianBlur stdDeviation="5.209"/>
      <feComposite in2="C" operator="arithmetic" k2="-1" k3="1"/>
      <feColorMatrix values="0 0 0 0 0.211765 0 0 0 0 0.858824 0 0 0 0 0.521569 0 0 0 0.3 0"/>
      <feBlend in2="B"/>
    </filter>
    <filter id="B" x="86.145" y="10.288" width="64.821" height="35.408" filterUnits="userSpaceOnUse" class="B">
      <feFlood class="C"/>
      <feBlend in="SourceGraphic" result="B"/>
      <feColorMatrix in="SourceAlpha" values="0 0 0 0 0 0 0 0 0 0 0 0 0 0 0 0 0 0 127 0" result="C"/>
      <feOffset dx="2.08365" dy="6.25094"/>
      <feGaussianBlur stdDeviation="4.167"/>
      <feComposite in2="C" operator="arithmetic" k2="-1" k3="1"/>
      <feColorMatrix values="0 0 0 0 0.98 0 0 0 0 0 0 0 0 0 1 0 0 0 0.25 0"/>
      <feBlend in2="B"/>
    </filter>
    <filter id="C" x="240.481" y="11.495" width="61.603" height="41.711" filterUnits="userSpaceOnUse" class="B">
      <feFlood class="C"/>
      <feBlend in="SourceGraphic" result="B"/>
      <feColorMatrix in="SourceAlpha" values="0 0 0 0 0 0 0 0 0 0 0 0 0 0 0 0 0 0 127 0" result="C"/>
      <feOffset dx="2.08365" dy="6.25094"/>
      <feGaussianBlur stdDeviation="4.167"/>
      <feComposite in2="C" operator="arithmetic" k2="-1" k3="1"/>
      <feColorMatrix values="0 0 0 0 0.204167 0 0 0 0 0.618 0 0 0 0 1 0 0 0 0.25 0"/>
      <feBlend in2="B"/>
    </filter>
    <style>.B{color-interpolation-filters:sRGB}.C{flood-opacity:0}</style>
  </defs>
  <g clip-path="url(#I)" transform="matrix(1, 0, 0, 1, 1.7763568394002505e-15, 0)">
    <path d="M122.423 60.999c-.796.014-1.58-.216-2.26-.663-.663-.456-1.193-1.071-1.588-1.844-.383-.774-.575-1.643-.575-2.611s.192-1.837.575-2.611c.395-.773.925-1.388 1.588-1.844s1.417-.683 2.26-.683c.676 0 1.289.159 1.837.476.538.293.994.736 1.32 1.284.346.538.537 1.168.575 1.885v2.963c-.038.705-.223 1.332-.555 1.885a3.67 3.67 0 0 1-1.321 1.305c-.549.304-1.167.456-1.856.456v.001zm.286-1.761c.575 0 1.072-.145 1.493-.435.431-.286.782-.694 1.015-1.18a4 4 0 0 0 .363-1.74c0-.678-.127-1.264-.383-1.761a2.92 2.92 0 0 0-1.014-1.18c-.42-.29-.919-.435-1.492-.435s-1.079.145-1.512.435a3.05 3.05 0 0 0-1.035 1.202c-.242.497-.363 1.071-.363 1.72 0 .663.121 1.25.363 1.761a3.07 3.07 0 0 0 1.035 1.18c.463.295.993.445 1.53.435v-.001zm4.499 1.554h-1.742V58.14l.326-2.403-.326-2.382V46h1.742v14.792zm6.662.207c-.893 0-1.697-.227-2.413-.683s-1.282-1.071-1.703-1.844c-.421-.787-.631-1.665-.631-2.63 0-.953.21-1.81.631-2.57.421-.773.989-1.388 1.703-1.844a4.39 4.39 0 0 1 2.413-.683 4.35 4.35 0 0 1 2.392.683 4.73 4.73 0 0 1 1.723 1.824c.421.774.631 1.636.631 2.589 0 .967-.21 1.844-.631 2.63a4.9 4.9 0 0 1-1.723 1.844 4.35 4.35 0 0 1-2.392.683h0zm0-1.803c.574 0 1.085-.145 1.531-.435s.798-.683 1.053-1.18c.256-.511.383-1.091.383-1.74 0-.635-.134-1.202-.402-1.699-.244-.486-.609-.888-1.054-1.16-.433-.29-.937-.435-1.511-.435s-1.085.145-1.532.435c-.446.276-.797.663-1.053 1.16s-.383 1.064-.383 1.699a3.86 3.86 0 0 0 .383 1.74c.248.488.611.895 1.053 1.18s.958.435 1.532.435zm9.03 1.595l-3.598-9.84h1.799l2.602 7.666h-.573l2.584-7.666h.995l2.584 7.666h-.574l2.603-7.666h1.799l-3.579 9.84h-1.014l-2.622-7.437h.631l-2.642 7.437h-.995 0zm18.185 0v-5.738c0-.746-.217-1.361-.651-1.844s-.995-.724-1.684-.724c-.461 0-.869.111-1.226.331a2.33 2.33 0 0 0-.842.912c-.204.386-.306.828-.306 1.327l-.709-.435c0-.746.154-1.409.46-1.989s.733-1.035 1.283-1.368c.564-.35 1.205-.529 1.856-.518.689 0 1.295.186 1.819.56a3.9 3.9 0 0 1 1.264 1.471c.305.594.459 1.229.459 1.906v6.112h-1.723v-.003zm-6.432 0v-9.84h1.723v9.84h-1.723zm10.487 0V46h1.723v14.792h-1.723zm8.397.207c-.893 0-1.697-.227-2.411-.683-.706-.445-1.293-1.08-1.705-1.844-.42-.787-.631-1.665-.631-2.63 0-.953.211-1.81.631-2.57.412-.763.999-1.398 1.705-1.844.714-.456 1.518-.683 2.411-.683a4.35 4.35 0 0 1 2.392.683c.729.442 1.302 1.05 1.723 1.824s.632 1.636.632 2.589c0 .967-.21 1.844-.632 2.63-.421.773-.994 1.388-1.723 1.844a4.35 4.35 0 0 1-2.392.683h0zm0-1.803c.575 0 1.085-.145 1.531-.435s.798-.683 1.053-1.18c.256-.511.383-1.091.383-1.74 0-.635-.134-1.202-.401-1.699-.256-.497-.607-.883-1.053-1.16-.456-.297-.981-.447-1.513-.435-.574 0-1.084.145-1.532.435-.446.276-.796.663-1.052 1.16s-.382 1.064-.382 1.699c-.01.605.121 1.204.382 1.74a3.03 3.03 0 0 0 1.052 1.18c.448.29.958.435 1.532.435zm10.555 1.803a4.04 4.04 0 0 1-2.258-.663c-.677-.456-1.213-1.071-1.608-1.844-.383-.774-.575-1.643-.575-2.611s.192-1.837.575-2.611c.395-.773.925-1.388 1.588-1.844.677-.456 1.436-.683 2.278-.683.689 0 1.302.159 1.838.476a3.49 3.49 0 0 1 1.32 1.284c.332.538.517 1.168.555 1.885v2.963c-.038.705-.223 1.332-.555 1.885-.319.553-.768 1.003-1.301 1.305s-1.154.456-1.857.456v.001zm.288-1.761c.854 0 1.543-.311 2.067-.932.524-.635.785-1.443.785-2.423 0-.678-.122-1.264-.364-1.761-.23-.511-.562-.905-.996-1.18-.433-.29-.937-.435-1.512-.435s-1.084.145-1.531.435a3.03 3.03 0 0 0-1.033 1.202c-.243.497-.365 1.071-.365 1.72 0 .663.122 1.25.365 1.761.254.497.605.89 1.052 1.18s.957.435 1.532.435v-.001zm2.736 1.554V58.14l.326-2.403-.326-2.382v-2.403h1.743v9.84h-1.743zm8.098.207c-.796.013-1.579-.217-2.259-.663-.663-.456-1.193-1.071-1.588-1.844-.383-.774-.575-1.643-.575-2.611s.192-1.837.575-2.611c.395-.773.925-1.388 1.588-1.844s1.417-.683 2.259-.683c.677 0 1.29.159 1.838.476.538.293.994.736 1.321 1.284.345.538.535 1.168.574 1.885v2.963a4.03 4.03 0 0 1-.555 1.885 3.67 3.67 0 0 1-1.321 1.305c-.549.304-1.167.456-1.857.456v.001zm.287-1.761c.575 0 1.072-.145 1.494-.435.431-.286.781-.694 1.014-1.18.249-.54.374-1.137.364-1.74 0-.678-.128-1.264-.384-1.761a2.92 2.92 0 0 0-1.014-1.18c-.421-.29-.919-.435-1.492-.435-.532-.013-1.057.138-1.513.435a3.03 3.03 0 0 0-1.033 1.202c-.243.497-.364 1.071-.364 1.72 0 .663.121 1.25.364 1.761.243.484.599.891 1.033 1.18.447.29.958.435 1.531.435v-.001zM200 60.792h-1.742V58.14l.326-2.403-.326-2.382V46H200v14.792z" style="paint-order: stroke; stroke-width: 0px; stroke: rgb(157, 198, 27); fill: rgb(255, 135, 11);"/>
    <path d="M214.946 60.818l-6.201-6.473c-.485-.508-.846-.993-1.083-1.454a3.31 3.31 0 0 1-.355-1.527c0-.642.157-1.211.468-1.709.308-.507.754-.922 1.288-1.2.548-.303 1.176-.455 1.886-.455.523 0 .996.085 1.42.254.435.158.815.37 1.139.637a3.91 3.91 0 0 1 .84.909l-1.214 1.073a3.8 3.8 0 0 0-.952-.927c-.336-.242-.747-.364-1.233-.364-.56 0-1.027.163-1.4.491s-.561.752-.561 1.273c0 .436.094.806.281 1.109s.466.654.84 1.054L217 60.817h-2.054v.001zm-4.65.182c-.859 0-1.612-.163-2.26-.491-.622-.304-1.145-.77-1.512-1.345-.35-.582-.524-1.243-.524-1.982 0-.763.213-1.455.635-2.073s1.04-1.109 1.849-1.472l.803 1.018c-.477.225-.884.57-1.177 1-.285.413-.429.909-.429 1.491 0 .472.112.879.336 1.218s.536.606.934.8c.411.182.877.273 1.401.273.66 0 1.22-.133 1.68-.4s.809-.606 1.046-1.018l1.103 1.254c-.25.328-.579.624-.99.891-.418.263-.87.471-1.345.618-.502.148-1.025.221-1.55.218h0z" style="fill: rgb(255, 255, 255);"/>
    <path d="M225.75 60.439c-.897 0-1.704-.191-2.423-.573-.72-.394-1.287-.925-1.703-1.593S221 56.847 221 56.001c0-.836.201-1.587.605-2.255.416-.667.971-1.193 1.665-1.576a4.77 4.77 0 0 1 2.365-.59c.833 0 1.565.179 2.196.538.637.351 1.155.867 1.494 1.486.366.632.549 1.349.549 2.147l-.018.394a4.13 4.13 0 0 1-.077.465h-7.587v-1.342h6.679l-.624.519c0-.573-.108-1.056-.322-1.449a2.21 2.21 0 0 0-.908-.93c-.392-.227-.864-.34-1.419-.34-.58 0-1.091.119-1.532.358a2.51 2.51 0 0 0-1.023 1.002c-.24.43-.359.936-.359 1.522 0 .596.126 1.122.378 1.576.247.437.622.797 1.079 1.038.467.238 1.003.358 1.609.358.473.006.943-.079 1.38-.25a2.86 2.86 0 0 0 1.098-.752l1.097 1.056c-.428.477-.959.842-1.589 1.092-.618.25-1.281.375-1.986.375v-.004zm12.339-.179v-4.957c0-.644-.214-1.176-.644-1.593s-.983-.626-1.664-.626a2.52 2.52 0 0 0-1.212.286c-.348.186-.635.458-.832.788s-.303.715-.303 1.146l-.699-.376c0-.644.15-1.217.454-1.718.298-.498.737-.907 1.267-1.182.543-.298 1.155-.448 1.836-.448s1.281.161 1.797.484c.53.323.947.746 1.249 1.271a3.19 3.19 0 0 1 .454 1.647v5.28h-1.703v-.002zm-6.357 0v-8.501h1.702v8.501h-1.702zm9.231 3.74c-.58 0-1.066-.09-1.457-.269a3.34 3.34 0 0 1-1.079-.769l1.098-1.056c.176.203.372.352.586.448.231.102.484.151.739.143.377 0 .705-.113.983-.34.278-.215.416-.542.416-.984v-9.414h1.704v9.396c0 .621-.139 1.14-.417 1.557s-.643.734-1.097.948c-.455.227-.962.344-1.476.34h0zm2.157-13.942c-.14.004-.279-.02-.409-.069s-.249-.123-.347-.217a1.02 1.02 0 0 1-.304-.752c-.004-.133.021-.264.073-.388s.131-.235.231-.328c.201-.203.454-.304.756-.304.315 0 .573.102.776.304a.97.97 0 0 1 .229.328c.052.123.077.255.073.387 0 .298-.1.548-.302.752-.102.095-.223.17-.357.219a1.1 1.1 0 0 1-.419.067h0zm7.446 10.381c-.884 0-1.678-.196-2.385-.59s-1.268-.925-1.684-1.593a4.27 4.27 0 0 1-.624-2.272c0-.823.208-1.563.624-2.22.416-.667.978-1.199 1.684-1.593s1.501-.59 2.385-.59a4.77 4.77 0 0 1 2.365.59c.707.371 1.295.915 1.703 1.575.417.668.624 1.414.624 2.237 0 .836-.207 1.593-.624 2.272-.411.663-.998 1.212-1.703 1.593a4.77 4.77 0 0 1-2.365.59h0zm0-1.557c.567 0 1.071-.125 1.514-.375a2.78 2.78 0 0 0 1.04-1.02 2.98 2.98 0 0 0 .379-1.503 2.73 2.73 0 0 0-.398-1.468 2.64 2.64 0 0 0-1.041-1.002c-.428-.25-.927-.376-1.494-.376s-1.073.125-1.514.376c-.439.236-.8.583-1.041 1.002-.253.43-.379.919-.379 1.468 0 .561.126 1.061.379 1.503.252.429.599.769 1.041 1.02s.945.375 1.514.375h0zm9.212 1.449l-3.898-8.572h1.892l2.895 6.712h-.605l3.046-6.712H265l-4.201 8.572h-1.021 0zm-2.574 3.49l2.649-5.137.946 1.647-1.702 3.49h-1.893 0z" style="fill: rgb(7, 209, 32);"/>
    <g filter="url(#A)">
      <path fill-rule="evenodd" d="M74.272 28.108H52.967c-3.847 0-5.917 3.551-5.622 7.102 0 2.959 2.367 5.622 5.622 5.622h12.428c-.593 5.03-7.989 15.387-12.724 8.581L37.58 20.712c-1.184-2.072-.296-4.735 2.072-5.917 5.03-2.367 11.836-2.072 16.57.591 2.663 1.479 5.622 1.184 7.693-.888l1.479-1.479C72.199 4.142 53.854 0 47.049 0 32.846 0 21.009 8.581 15.98 21.008c-1.775 4.142-2.959 8.877-2.959 13.315l-11.836.591A1.28 1.28 0 0 0 0 36.099a1.28 1.28 0 0 0 1.184 1.184l11.836-.591c.296 9.468 6.214 19.529 13.907 24.559l-6.51 10.061c-.296.591-.296 1.184.296 1.479s1.184 0 1.775-.591l6.214-10.061c1.775.888 3.551 1.775 5.326 2.367 22.785 9.468 46.752-6.215 45.273-31.662.296-2.663-2.072-4.735-5.03-4.735h0zM22.49 35.506c1.308 0 2.367-1.06 2.367-2.367a2.37 2.37 0 0 0-2.367-2.367 2.37 2.37 0 0 0-2.367 2.367 2.37 2.37 0 0 0 2.367 2.367zm13.02 18.05a2.37 2.37 0 0 1-2.367 2.367 2.37 2.37 0 0 1-2.367-2.367 2.37 2.37 0 0 1 2.367-2.367 2.37 2.37 0 0 1 2.367 2.367z" style="fill: rgb(3, 214, 105);"/>
    </g>
    <g filter="url(#B)">
      <path d="M108.03 28.473c-.099 0-.273-.013-.521-.038l-1.227-.038h-5.801c-.632.012-.941-.298-.93-.929v-2.472c-.013-.632.298-.943.93-.93h11.157c.632-.013.941.298.93.93v7.475c0 .855-.217 1.568-.652 2.138-.805 1.067-1.933 2.021-3.383 2.864-2.269 1.313-4.823 1.971-7.662 1.971-4.128 0-7.617-1.419-10.468-4.258-2.839-2.851-4.258-6.291-4.258-10.319s1.419-7.468 4.258-10.319c2.851-2.839 6.291-4.258 10.321-4.258 3.086 0 5.948.88 8.589 2.641.583.384.875.719.875 1.004 0 .174-.099.378-.298.614l-1.655 1.97c-.223.273-.458.409-.706.409-.149 0-.329-.074-.539-.223-1.848-1.302-3.943-1.953-6.286-1.953-2.763 0-5.138.986-7.121 2.957-1.983 1.983-2.975 4.369-2.975 7.159 0 2.777.986 5.15 2.957 7.121 2.021 2.021 4.506 3.031 7.455 3.031 3.062 0 5.399-.936 7.01-2.808v-3.737.001zm24.116 2.677h-12.717c-.05 0-.074.018-.074.056 0 .607.34 1.333 1.022 2.176 1.103 1.376 2.652 2.064 4.648 2.064 1.489 0 2.919-.322 4.295-.967.435-.199.719-.298.857-.298.284 0 .526.18.724.539l.837 1.563c.124.223.185.397.185.521 0 .285-.198.557-.594.819-1.971 1.215-4.134 1.822-6.489 1.822-2.864 0-5.244-.943-7.141-2.826-1.883-1.897-2.826-4.24-2.826-7.028 0-2.777.943-5.107 2.826-6.992 1.81-1.834 4.054-2.752 6.731-2.752 2.467 0 4.488.787 6.062 2.361 1.748 1.735 2.622 4.042 2.622 6.917l-.019 1.042-.018.149c0 .595-.311.873-.931.837v-.003zm-12.699-3.273h9.223c.05 0 .075-.086.075-.26 0-.756-.298-1.5-.893-2.231-.893-1.103-2.083-1.655-3.571-1.655-1.71 0-3.104.719-4.184 2.157-.494.657-.742 1.27-.742 1.841 0 .099.03.149.092.149h0zm20.287-7.624v-4.741c-.014-.632.297-.942.929-.929h2.362c.631-.013.942.298.929.929v4.741h3.997c.633-.013.943.298.931.93v1.953c.012.632-.298.942-.931.929h-3.997v14.15c.013.632-.298.943-.929.929h-2.362c-.632.012-.943-.298-.929-.929V24.065h-4.054c-.633.012-.942-.298-.931-.929v-1.953c-.011-.632.298-.943.931-.93h4.054 0z" style="fill: rgb(249, 65, 136);"/>
    </g>
    <path d="M166.621 22.887c1.719-1.701 3.815-2.55 6.289-2.55 2.525 0 4.564.782 6.124 2.346 1.508 1.502 2.264 3.426 2.264 5.773V38.77c.011.633-.297.944-.929.931h-2.319c-.63.012-.94-.298-.927-.931V28.715c0-1.129-.414-2.11-1.244-2.941-.84-.831-1.824-1.247-2.949-1.247a4.29 4.29 0 0 0-2.766.987c-.964.782-1.447 1.75-1.447 2.905V38.77c.013.633-.297.944-.928.931h-2.318c-.632.012-.941-.298-.929-.931V28.715c0-1.142-.419-2.128-1.261-2.961-.828-.82-1.83-1.229-3.006-1.229-1.299 0-2.332.397-3.098 1.192-.668.72-1.002 1.644-1.002 2.774v10.277c.012.633-.297.944-.928.931h-2.319c-.631.012-.941-.298-.928-.931V21.564c-.013-.633.297-.944.928-.931h2.134c.618-.025.927.26.927.856v.167c1.274-.881 2.734-1.322 4.379-1.322 2.461 0 4.545.85 6.253 2.55v.001zm27.459-2.55c2.649 0 4.924.956 6.829 2.868s2.858 4.221 2.858 6.927c0 2.756-.959 5.095-2.877 7.019a9.42 9.42 0 0 1-3.158 2.139c-1.187.49-2.461.731-3.744.71-2.733 0-5.053-.962-6.957-2.886-1.918-1.911-2.877-4.233-2.877-6.963-.019-1.287.223-2.565.711-3.756s1.212-2.27 2.128-3.171c1.906-1.924 4.267-2.886 7.087-2.886h0zm-.129 4.226c-1.534 0-2.845.546-3.934 1.638-.522.509-.934 1.121-1.212 1.796a5.37 5.37 0 0 0-.402 2.132c0 1.588.55 2.929 1.652 4.022a5.34 5.34 0 0 0 3.933 1.62c1.559 0 2.876-.54 3.952-1.62a5.41 5.41 0 0 0 1.242-1.828 5.42 5.42 0 0 0 .41-2.174c.011-.733-.126-1.462-.403-2.14a5.43 5.43 0 0 0-1.211-1.808c-1.077-1.093-2.419-1.638-4.027-1.638h0zm27.534-2.365v-8.266c-.012-.633.297-.944.929-.931h2.318c.631-.012.941.298.928.931v24.838c.013.633-.297.944-.928.931h-2.208c-.63.012-.94-.298-.927-.931v-.707c-1.757 1.29-3.668 1.936-5.734 1.936-2.721 0-5.04-.962-6.958-2.886-1.929-1.924-2.894-4.239-2.894-6.945s.965-5.021 2.894-6.945c1.918-1.924 4.231-2.886 6.94-2.886 1.991 0 3.871.621 5.64 1.861v.001zm-5.695 2.327c-.733-.012-1.46.128-2.136.41a5.35 5.35 0 0 0-1.798 1.228c-1.089 1.08-1.634 2.414-1.634 4.003s.545 2.923 1.634 4.003c1.088 1.093 2.418 1.639 3.989 1.639 1.559 0 2.876-.54 3.952-1.62 1.1-1.093 1.651-2.433 1.651-4.022 0-1.576-.551-2.918-1.651-4.022-1.076-1.08-2.413-1.62-4.007-1.62v.001zm13.099 11.507l1.614-1.043c.21-.136.396-.205.556-.205.223 0 .477.156.761.465.421.447.922.671 1.503.671a1.67 1.67 0 0 0 1.206-.484c.322-.323.482-.707.482-1.154 0-.707-.457-1.416-1.373-2.123-.371-.285-1.113-.745-2.226-1.378-2.091-1.179-3.135-2.799-3.135-4.86 0-1.613.531-2.954 1.594-4.022 1.04-1.043 2.32-1.563 3.842-1.563 1.422 0 2.714.583 3.878 1.75.544.558.816.999.816 1.322 0 .273-.161.515-.483.727l-1.521 1.023c-.223.149-.408.224-.557.224-.234 0-.457-.124-.668-.373-.358-.397-.81-.596-1.355-.596-.469 0-.846.149-1.13.447-.286.273-.428.614-.428 1.024 0 .533.359 1.055 1.076 1.565.284.21.897.596 1.837 1.154 2.548 1.514 3.822 3.476 3.822 5.883 0 1.563-.518 2.873-1.558 3.928-1.064 1.055-2.375 1.583-3.934 1.583-1.657 0-3.079-.614-4.267-1.843-.57-.596-.853-1.055-.853-1.378 0-.285.166-.533.501-.745v.001z" style="fill-rule: nonzero; paint-order: fill; fill: rgb(255, 255, 255);"/>
    <g filter="url(#C)">
      <path d="M256.155 21.778v-.744c-.012-.632.297-.942.931-.929h2.1c.632-.012.943.298.93.929v17.181c.013.632-.298.943-.93.929h-2.1c-.634.012-.943-.298-.931-.929v-.706c-1.809 1.288-3.756 1.933-5.838 1.933-2.715 0-5.032-.961-6.954-2.882s-2.882-4.234-2.882-6.936.96-5.014 2.882-6.936 4.232-2.882 6.936-2.882c2.057 0 4.009.657 5.856 1.971v.001zm-5.912 2.213c-1.538 0-2.851.546-3.943 1.636s-1.635 2.424-1.635 3.997c0 1.586.545 2.919 1.635 3.997 1.092 1.091 2.424 1.637 3.999 1.637s2.906-.546 3.997-1.637c1.091-1.078 1.636-2.411 1.636-3.997 0-1.574-.545-2.907-1.636-3.997-1.078-1.091-2.429-1.636-4.053-1.636zm17.162 13.592v8.442c.012.632-.298.943-.929.93h-2.362c-.633.013-.943-.298-.931-.93V21.034c-.012-.632.298-.942.931-.929h2.213c.632-.012.941.298.929.929v.67c1.809-1.265 3.731-1.897 5.764-1.897a9.47 9.47 0 0 1 6.954 2.882c1.92 1.922 2.882 4.233 2.882 6.936s-.961 5.014-2.882 6.936a9.45 9.45 0 0 1-6.935 2.882c-2.021 0-3.899-.62-5.634-1.859v-.001zm5.578-13.592a5.37 5.37 0 0 0-3.942 1.636c-1.09 1.078-1.636 2.411-1.636 3.997s.546 2.919 1.636 3.997c1.091 1.091 2.424 1.637 3.998 1.637s2.906-.546 3.997-1.637c1.092-1.078 1.636-2.411 1.636-3.997 0-1.574-.544-2.907-1.636-3.997-1.078-1.091-2.429-1.636-4.053-1.636zm21.178 5.467l5.672 8.851c.086.136.129.255.129.354 0 .322-.197.483-.594.483h-3.013a1.37 1.37 0 0 1-1.263-.688l-4.798-7.531c-.025-.025-.044-.038-.056-.038-.05 0-.074.025-.074.074v7.252c.013.632-.298.943-.93.929h-2.325c-.632.012-.941-.298-.929-.929v-25.79c-.012-.632.297-.943.929-.93h2.325c.632-.012.943.298.93.93v15.47c0 .05.024.074.074.074.012 0 .031-.012.056-.037l4.816-7.141a1.48 1.48 0 0 1 1.301-.688h2.994c.397 0 .595.161.595.483 0 .086-.05.205-.149.354l-5.69 8.517h0z" style="fill: rgb(43, 73, 243);"/>
    </g>
  </g>
</svg>